<svg width="100" height="100" viewBox="0 0 100 100" fill="none" xmlns="http://www.w3.org/2000/svg">
<path fill-rule="evenodd" clip-rule="evenodd" d="M43.75 16.6666C28.7923 16.6666 16.6667 28.7923 16.6667 43.75C16.6667 58.7077 28.7923 70.8333 43.75 70.8333C58.7078 70.8333 70.8334 58.7077 70.8334 43.75C70.8334 28.7923 58.7078 16.6666 43.75 16.6666ZM8.33337 43.75C8.33337 24.1899 24.19 8.33331 43.75 8.33331C63.3101 8.33331 79.1667 24.1899 79.1667 43.75C79.1667 63.3101 63.3101 79.1666 43.75 79.1666C24.19 79.1666 8.33337 63.3101 8.33337 43.75Z" fill="black"/>
<path fill-rule="evenodd" clip-rule="evenodd" d="M62.8863 62.887C64.5135 61.2598 67.1517 61.2598 68.7788 62.887L90.4455 84.5537C92.0727 86.1809 92.0727 88.8191 90.4455 90.4462C88.8183 92.0734 86.1801 92.0734 84.553 90.4462L62.8863 68.7796C61.2591 67.1524 61.2591 64.5142 62.8863 62.887Z" fill="black"/>
</svg>
